<?xml version="1.0" standalone="no"?><!DOCTYPE svg PUBLIC "-//W3C//DTD SVG 1.1//EN" "http://www.w3.org/Graphics/SVG/1.1/DTD/svg11.dtd"><svg class="icon" width="16px" height="16.00px" viewBox="0 0 1024 1024" version="1.1" xmlns="http://www.w3.org/2000/svg"><path d="M515.436 312.315H914.285C840.842 165.045 688.748 63.868 513 63.868c-141.284 0-267.274 65.395-349.42 167.546l151.66 262.682c8.535-102.325 95.704-181.781 200.196-181.781zM514.218 345.197c-91.476 0-165.631 74.155-165.631 165.631s74.155 165.631 165.631 165.631c52.7 0 99.615-24.642 129.95-62.999l1.428-2.474 0.355 0.205c21.252-27.852 33.898-62.624 33.898-100.363 0-84.774-63.702-154.626-145.841-164.413l-6.393-0.632c-4.424-0.354-8.882-0.586-13.397-0.586zM929.561 346.415H627.443c52.209 36.066 86.506 96.297 86.506 164.413 0 45.547-18.268 81.598-41.12 121.192L483.898 959.257c9.624 0.617 19.322 0.966 29.102 0.966 247.521 0 448.177-200.656 448.177-448.177 0-58.508-11.225-114.391-31.616-165.631zM514.218 710.559c-83.583 0-144.927-54.804-185.034-124.651l-0.235 0.136-187.482-324.727C93.081 332.876 64.823 419.16 64.823 512.046c0 225.02 165.839 411.288 381.958 443.298l152.278-263.752c-25.769 12.143-54.518 18.967-84.841 18.967z" /></svg>